<svg width="26" height="26" viewBox="0 0 26 26" fill="none" xmlns="http://www.w3.org/2000/svg">
<path d="M13.0003 16.4993C13.9725 16.4993 14.7989 16.1591 15.4795 15.4785C16.16 14.798 16.5003 13.9716 16.5003 12.9993C16.5003 12.0271 16.16 11.2007 15.4795 10.5202C14.7989 9.83963 13.9725 9.49935 13.0003 9.49935C12.0281 9.49935 11.2017 9.83963 10.5212 10.5202C9.8406 11.2007 9.50033 12.0271 9.50033 12.9993C9.50033 13.9716 9.8406 14.798 10.5212 15.4785C11.2017 16.1591 12.0281 16.4993 13.0003 16.4993ZM13.0003 18.8327C11.3864 18.8327 10.0109 18.2637 8.87383 17.1258C7.73594 15.9887 7.16699 14.6132 7.16699 12.9993C7.16699 11.3855 7.73594 10.0096 8.87383 8.87168C10.0109 7.73457 11.3864 7.16602 13.0003 7.16602C14.6142 7.16602 15.9901 7.73457 17.128 8.87168C18.2651 10.0096 18.8337 11.3855 18.8337 12.9993C18.8337 14.6132 18.2651 15.9887 17.128 17.1258C15.9901 18.2637 14.6142 18.8327 13.0003 18.8327ZM1.33366 14.166C1.0031 14.166 0.726214 14.054 0.502992 13.83C0.278992 13.6068 0.166992 13.3299 0.166992 12.9993C0.166992 12.6688 0.278992 12.3915 0.502992 12.1675C0.726214 11.9443 1.0031 11.8327 1.33366 11.8327H3.66699C3.99755 11.8327 4.27483 11.9443 4.49883 12.1675C4.72205 12.3915 4.83366 12.6688 4.83366 12.9993C4.83366 13.3299 4.72205 13.6068 4.49883 13.83C4.27483 14.054 3.99755 14.166 3.66699 14.166H1.33366ZM22.3337 14.166C22.0031 14.166 21.7262 14.054 21.503 13.83C21.279 13.6068 21.167 13.3299 21.167 12.9993C21.167 12.6688 21.279 12.3915 21.503 12.1675C21.7262 11.9443 22.0031 11.8327 22.3337 11.8327H24.667C24.9975 11.8327 25.2744 11.9443 25.4977 12.1675C25.7217 12.3915 25.8337 12.6688 25.8337 12.9993C25.8337 13.3299 25.7217 13.6068 25.4977 13.83C25.2744 14.054 24.9975 14.166 24.667 14.166H22.3337ZM13.0003 4.83268C12.6698 4.83268 12.3929 4.72068 12.1697 4.49668C11.9457 4.27346 11.8337 3.99657 11.8337 3.66602V1.33268C11.8337 1.00213 11.9457 0.724849 12.1697 0.500849C12.3929 0.277627 12.6698 0.166016 13.0003 0.166016C13.3309 0.166016 13.6082 0.277627 13.8322 0.500849C14.0554 0.724849 14.167 1.00213 14.167 1.33268V3.66602C14.167 3.99657 14.0554 4.27346 13.8322 4.49668C13.6082 4.72068 13.3309 4.83268 13.0003 4.83268ZM13.0003 25.8327C12.6698 25.8327 12.3929 25.7207 12.1697 25.4967C11.9457 25.2735 11.8337 24.9966 11.8337 24.666V22.3327C11.8337 22.0021 11.9457 21.7252 12.1697 21.502C12.3929 21.278 12.6698 21.166 13.0003 21.166C13.3309 21.166 13.6082 21.278 13.8322 21.502C14.0554 21.7252 14.167 22.0021 14.167 22.3327V24.666C14.167 24.9966 14.0554 25.2735 13.8322 25.4967C13.6082 25.7207 13.3309 25.8327 13.0003 25.8327ZM5.59199 7.22435L4.33783 5.99935C4.10449 5.78546 3.99249 5.51324 4.00183 5.18268C4.01194 4.85213 4.12394 4.57018 4.33783 4.33685C4.57116 4.10352 4.8531 3.98685 5.18366 3.98685C5.51421 3.98685 5.78644 4.10352 6.00033 4.33685L7.22533 5.59102C7.43921 5.82435 7.54616 6.09657 7.54616 6.40768C7.54616 6.71879 7.43921 6.99102 7.22533 7.22435C7.01144 7.45768 6.74427 7.56929 6.42383 7.55918C6.1026 7.54985 5.82533 7.43824 5.59199 7.22435ZM20.0003 21.6618L18.7753 20.4077C18.5614 20.1743 18.4545 19.8975 18.4545 19.577C18.4545 19.2558 18.5614 18.9882 18.7753 18.7743C18.9892 18.541 19.2568 18.4294 19.578 18.4395C19.8984 18.4488 20.1753 18.5605 20.4087 18.7743L21.6628 19.9993C21.8962 20.2132 22.0082 20.4855 21.9988 20.816C21.9887 21.1466 21.8767 21.4285 21.6628 21.6618C21.4295 21.8952 21.1475 22.0118 20.817 22.0118C20.4864 22.0118 20.2142 21.8952 20.0003 21.6618ZM18.7753 7.22435C18.542 7.01046 18.4304 6.7429 18.4405 6.42168C18.4498 6.10124 18.5614 5.82435 18.7753 5.59102L20.0003 4.33685C20.2142 4.10352 20.4864 3.99152 20.817 4.00085C21.1475 4.01096 21.4295 4.12296 21.6628 4.33685C21.8962 4.57018 22.0128 4.85213 22.0128 5.18268C22.0128 5.51324 21.8962 5.78546 21.6628 5.99935L20.4087 7.22435C20.1753 7.43824 19.9031 7.54518 19.592 7.54518C19.2809 7.54518 19.0087 7.43824 18.7753 7.22435ZM4.33783 21.6618C4.10449 21.4285 3.98783 21.1466 3.98783 20.816C3.98783 20.4855 4.10449 20.2132 4.33783 19.9993L5.59199 18.7743C5.82533 18.5605 6.1026 18.4535 6.42383 18.4535C6.74427 18.4535 7.01144 18.5605 7.22533 18.7743C7.45866 18.9882 7.57066 19.2558 7.56133 19.577C7.55121 19.8975 7.43921 20.1743 7.22533 20.4077L6.00033 21.6618C5.78644 21.8952 5.51421 22.0068 5.18366 21.9967C4.8531 21.9873 4.57116 21.8757 4.33783 21.6618Z" fill="black"/>
</svg>
