<svg width="40" height="40" viewBox="0 0 40 40" fill="none" xmlns="http://www.w3.org/2000/svg">
<path d="M33.9139 22.1396C33.9139 27.3236 33.9139 32.5075 33.9139 37.6914C33.9139 39.1515 33.0424 40.0004 31.5936 40.0004C23.0481 40.0004 14.5025 40.0004 5.95696 40.0004C4.03279 40.0004 2.83301 38.812 2.83301 36.8878C2.83301 35.7333 2.83301 34.5675 2.83301 33.413C3.7385 33.413 4.63267 33.413 5.53816 33.413C5.53816 34.3864 5.53816 35.3598 5.54948 36.3332C5.54948 37.0123 5.82113 37.2953 6.48893 37.2953C7.53024 37.2953 8.57155 37.2953 9.62418 37.2953C16.4719 37.2953 23.3197 37.2953 30.1562 37.2953C30.9372 37.2953 31.2201 37.001 31.2201 36.2313C31.2201 32.4283 31.2201 28.6365 31.2201 24.8335C32.0916 23.9167 33.0085 23.0225 33.9139 22.1396Z" fill="#1DA1F2"/>
<path d="M2.84473 6.59876C2.84473 5.38767 2.84473 4.16525 2.84473 2.95416C2.85605 1.26768 4.10109 0.0113228 5.78757 0.0113228C14.3558 0.0113228 22.9239 0.0226372 31.4921 0C32.8277 0 33.9256 0.780982 33.9256 2.44482C33.9143 6.19128 33.9256 9.92643 33.9256 13.6729C33.9256 13.9785 33.937 14.2954 33.937 14.601C33.0881 15.4952 32.2165 16.378 31.3224 17.2156C31.1752 17.0798 31.2431 16.8987 31.2431 16.7289C31.2431 12.4278 31.2431 8.11546 31.2431 3.81438C31.2431 2.9768 30.9941 2.71647 30.1679 2.71647C23.3201 2.71647 16.4837 2.71647 9.6359 2.71647C8.59458 2.71647 7.55326 2.71647 6.50063 2.71647C5.83283 2.71647 5.5612 2.99943 5.5612 3.67855C5.5612 4.65195 5.56118 5.62536 5.54987 6.59876C4.64438 6.59876 3.7389 6.59876 2.84473 6.59876Z" fill="#1DA1F2"/>
<path d="M31.3113 17.2161C32.2054 16.3672 33.0769 15.4956 33.9258 14.6015C34.4804 14.1374 34.9219 13.5488 35.4991 13.1074C36.7102 14.3638 37.944 15.5975 39.2003 16.8086C37.5704 18.4498 35.9406 20.0797 34.3107 21.7209C34.1749 21.8567 34.039 22.0039 33.9032 22.151C32.9864 23.0339 32.0809 23.9167 31.2094 24.8448C30.9717 25.0712 30.734 25.2863 30.5076 25.5126C29.0136 26.984 27.5308 28.4668 26.0481 29.9382C24.8257 28.7045 23.6033 27.4821 22.3809 26.2483C22.4261 26.0672 22.5733 25.9767 22.6865 25.8522C25.4482 23.0791 28.2213 20.3174 30.983 17.5556C31.1075 17.4424 31.2094 17.3293 31.3113 17.2161Z" fill="#636C77"/>
<path d="M2.84467 6.59863C3.75016 6.59863 4.64432 6.59863 5.54981 6.59863C5.88937 6.60995 6.22893 6.60995 6.55717 6.62126C7.19101 6.63258 7.55321 6.96082 7.57584 7.59466C7.59848 8.104 7.59848 8.60202 7.57584 9.11136C7.55321 9.67729 7.19101 10.0055 6.62508 10.0282C6.26288 10.0395 5.90069 9.9829 5.53849 10.0621C4.64432 10.0055 3.75016 10.0282 2.84467 10.0508C2.82203 10.0621 2.79939 10.0734 2.76543 10.0734C2.33532 10.0848 1.90521 10.1414 1.4751 10.0169C1.045 9.88103 0.818636 9.58675 0.807317 9.14532C0.795998 8.60203 0.795998 8.04742 0.807317 7.50412C0.818636 6.98347 1.18082 6.6439 1.69016 6.62126C2.07499 6.59863 2.45984 6.59863 2.84467 6.59863Z" fill="#636C77"/>
<path d="M2.83334 25.625C2.44851 25.6137 2.07499 25.625 1.69016 25.6024C1.1695 25.5798 0.818636 25.2402 0.807317 24.7195C0.795998 24.1762 0.795998 23.6216 0.807317 23.0783C0.818636 22.5577 1.1695 22.2181 1.69016 22.1955C2.06368 22.1842 2.44851 22.1842 2.83334 22.1729C3.73883 22.2181 4.633 22.2181 5.53849 22.1729C5.90069 22.1842 6.26289 22.1955 6.63641 22.2068C7.19102 22.2181 7.55321 22.5577 7.57584 23.1236C7.59848 23.633 7.59848 24.131 7.57584 24.6403C7.54189 25.2742 7.17969 25.6024 6.55717 25.6137C6.21761 25.6137 5.88937 25.625 5.54981 25.6363C4.64432 25.625 3.73883 25.625 2.83334 25.625Z" fill="#636C77"/>
<path d="M5.53849 33.4239C4.633 33.4239 3.73883 33.4239 2.83334 33.4239C2.47114 33.4239 2.09763 33.4239 1.73544 33.4125C1.16951 33.3899 0.818636 33.0503 0.807317 32.4731C0.795998 31.9524 0.795998 31.4318 0.807317 30.9111C0.818636 30.3339 1.1695 30.017 1.74675 30.017C2.08631 30.017 2.42587 30.0056 2.76543 30.0056C2.79939 30.0056 2.82203 30.0056 2.84467 29.983C3.73884 30.0056 4.633 30.0283 5.53849 29.9717C5.90069 30.0509 6.26288 29.9943 6.62508 30.0056C7.17969 30.0283 7.55321 30.3565 7.57584 30.9224C7.59848 31.4318 7.59848 31.9298 7.57584 32.4391C7.55321 33.073 7.19101 33.4012 6.55717 33.4125C6.21761 33.4125 5.87805 33.4125 5.53849 33.4239Z" fill="#636C77"/>
<path d="M2.83334 17.8379C2.44851 17.8266 2.07499 17.8266 1.69016 17.8153C1.1695 17.7927 0.818636 17.4531 0.807317 16.9324C0.795998 16.3891 0.795998 15.8345 0.807317 15.2912C0.818636 14.7706 1.18082 14.431 1.69016 14.4084C2.07499 14.3971 2.44851 14.3971 2.83334 14.3857C3.73883 14.3857 4.633 14.3857 5.53849 14.3857C5.86673 14.3971 6.18365 14.4084 6.51189 14.4084C7.20233 14.4197 7.55321 14.7479 7.57584 15.4384C7.58716 15.9024 7.58716 16.3665 7.57584 16.8419C7.56452 17.4418 7.19102 17.804 6.59113 17.8153C6.24025 17.8266 5.88937 17.8379 5.53849 17.8379C4.633 17.804 3.73883 17.804 2.83334 17.8379Z" fill="#636C77"/>
<path d="M5.53816 14.3862C4.63267 14.3862 3.7385 14.3862 2.83301 14.3862C2.83301 12.96 2.83302 11.5226 2.84434 10.0964C2.84434 10.0738 2.84434 10.0625 2.84434 10.0398C3.73851 10.0172 4.63267 9.99455 5.53816 10.0511C5.53816 11.4999 5.53816 12.9487 5.53816 14.3862Z" fill="#1DA1F2"/>
<path d="M2.83301 17.8377C3.7385 17.7924 4.63267 17.7924 5.53816 17.8377C5.53816 19.2864 5.53816 20.7239 5.53816 22.1727C4.63267 22.2067 3.7385 22.218 2.83301 22.1727C2.83301 20.7239 2.83301 19.2864 2.83301 17.8377Z" fill="#1DA1F2"/>
<path d="M5.53816 29.96C4.64399 30.0166 3.74983 29.994 2.84434 29.9714C2.84434 29.9487 2.84434 29.9374 2.84434 29.9148C2.84434 28.4886 2.84433 27.0511 2.83301 25.625C3.7385 25.625 4.63267 25.625 5.53816 25.625C5.53816 27.0738 5.53816 28.5113 5.53816 29.96Z" fill="#1DA1F2"/>
<path d="M2.84429 10.0508C2.84429 10.0734 2.84429 10.0847 2.84429 10.1074C2.82165 10.0961 2.799 10.096 2.77637 10.0847C2.799 10.0621 2.82165 10.0508 2.84429 10.0508Z" fill="#38A7D1"/>
<path d="M2.84486 29.915C2.84486 29.9377 2.84486 29.949 2.84486 29.9716C2.82223 29.9943 2.79958 29.9943 2.76562 29.9943C2.78826 29.9716 2.82223 29.9377 2.84486 29.915Z" fill="#38A7D1"/>
<path d="M31.3111 17.2154C31.2092 17.3286 31.1073 17.4531 30.9942 17.5549C28.2324 20.3167 25.4593 23.0897 22.6976 25.8515C22.5844 25.9647 22.426 26.0665 22.392 26.2476C22.2335 26.3155 22.2222 26.474 22.1769 26.5985C21.6902 27.8322 21.2035 29.066 20.7168 30.2997C20.581 30.6506 20.5697 30.9901 20.8414 31.2844C21.1243 31.59 21.4752 31.6013 21.8487 31.4768C22.4486 31.2618 23.0485 31.0807 23.6371 30.843C24.4407 30.5374 25.2669 30.3223 26.0479 29.9488C27.5307 28.4774 29.0247 26.9947 30.5074 25.5232C30.7338 25.2969 30.9715 25.0818 31.2092 24.8554C31.2092 28.6585 31.2092 32.4502 31.2092 36.2533C31.2092 37.023 30.9149 37.3172 30.1453 37.3172C23.2975 37.3172 16.4497 37.3172 9.61328 37.3172C9.61328 25.7836 9.61328 14.2612 9.61328 2.72754C16.461 2.72754 23.2975 2.72754 30.1453 2.72754C30.9602 2.72754 31.2205 2.98788 31.2205 3.82545C31.2205 8.12653 31.2205 12.4389 31.2205 16.74C31.2318 16.8871 31.1753 17.0682 31.3111 17.2154ZM20.4226 13.1973C22.1204 13.1973 23.8068 13.1973 25.5046 13.1973C26.2064 13.1973 26.5459 12.8577 26.5459 12.156C26.5572 11.0015 26.5572 9.83564 26.5459 8.68114C26.5346 8.01335 26.2177 7.70773 25.5499 7.70773C22.1543 7.70773 18.7474 7.70773 15.3518 7.70773C14.6614 7.70773 14.3671 7.99071 14.3671 8.68114C14.3671 9.82432 14.3671 10.9675 14.3671 12.1107C14.3671 12.9143 14.6614 13.1973 15.465 13.1973C17.1175 13.1973 18.77 13.1973 20.4226 13.1973Z" fill="#1DA1F2"/>
<path d="M9.62428 2.71599C9.62428 14.2497 9.62428 25.772 9.62428 37.3057C8.58296 37.3057 7.54166 37.3057 6.48902 37.3057C5.82122 37.3057 5.54957 37.0227 5.54957 36.3436C5.54957 35.3702 5.54958 34.3968 5.53826 33.4234C5.87782 33.4121 6.20606 33.4121 6.54562 33.4008C7.17946 33.3894 7.54166 33.0612 7.56429 32.4274C7.58693 31.918 7.58693 31.42 7.56429 30.9107C7.54166 30.3561 7.17946 30.0165 6.61353 29.9939C6.25133 29.9825 5.88914 30.0391 5.52694 29.9599C5.52694 28.5111 5.52694 27.0737 5.52694 25.6249C5.8665 25.6136 6.19474 25.6022 6.5343 25.6022C7.16814 25.5909 7.53034 25.274 7.55298 24.6288C7.57561 24.1195 7.57561 23.6215 7.55298 23.1122C7.53034 22.5462 7.16814 22.2066 6.61353 22.1953C6.25133 22.184 5.88914 22.1727 5.51562 22.1614C5.51562 20.7126 5.51562 19.2751 5.51562 17.8263C5.8665 17.815 6.21737 17.8037 6.56825 17.8037C7.16814 17.7924 7.54166 17.4302 7.55298 16.8303C7.5643 16.3663 7.5643 15.9022 7.55298 15.4268C7.53034 14.7364 7.17946 14.4081 6.48902 14.3968C6.16078 14.3968 5.84386 14.3855 5.51562 14.3742C5.51562 12.9254 5.51562 11.4879 5.51562 10.0391C5.87782 9.95992 6.24001 10.0165 6.60221 10.0052C7.15682 9.98255 7.53034 9.65431 7.55298 9.08838C7.57561 8.57904 7.57561 8.08102 7.55298 7.57168C7.53034 6.93784 7.15682 6.6096 6.5343 6.59828C6.19474 6.59828 5.85518 6.58696 5.52694 6.57564C5.52694 5.60224 5.52694 4.62884 5.53826 3.65544C5.53826 2.97632 5.80991 2.69336 6.47771 2.69336C7.54166 2.716 8.58296 2.71599 9.62428 2.71599Z" fill="#1DA1F2"/>
<path d="M26.071 29.9375C25.3013 30.311 24.4637 30.5261 23.6601 30.8317C23.0715 31.0581 22.4603 31.2505 21.8718 31.4655C21.4983 31.6013 21.1474 31.59 20.8644 31.2731C20.5928 30.9788 20.5928 30.6393 20.7399 30.2884C21.2266 29.0547 21.7133 27.8209 22.2 26.5872C22.2453 26.4627 22.2566 26.3042 22.4151 26.2363C23.6262 27.4814 24.8486 28.7038 26.071 29.9375Z" fill="#F5F5F5"/>
<path d="M20.4226 13.1975C18.7701 13.1975 17.1176 13.1975 15.4651 13.1975C14.6502 13.1975 14.3672 12.9033 14.3672 12.111C14.3672 10.9678 14.3672 9.8246 14.3672 8.68142C14.3672 7.99098 14.6502 7.70801 15.3519 7.70801C18.7475 7.70801 22.1544 7.70801 25.55 7.70801C26.2178 7.70801 26.5347 8.02494 26.546 8.68142C26.5573 9.83592 26.5573 10.9904 26.546 12.1562C26.546 12.858 26.2065 13.1975 25.5047 13.1975C23.8069 13.2089 22.1091 13.1975 20.4226 13.1975Z" fill="#F5F5F5"/>
</svg>
