<svg width="26" height="14" viewBox="0 0 26 14" fill="none" xmlns="http://www.w3.org/2000/svg">
<path d="M7.16699 14C5.22255 14 3.56977 13.3194 2.20866 11.9583C0.847548 10.5972 0.166992 8.94444 0.166992 7C0.166992 5.05556 0.847548 3.40278 2.20866 2.04167C3.56977 0.680556 5.22255 0 7.16699 0H18.8337C20.7781 0 22.4309 0.680556 23.792 2.04167C25.1531 3.40278 25.8337 5.05556 25.8337 7C25.8337 8.94444 25.1531 10.5972 23.792 11.9583C22.4309 13.3194 20.7781 14 18.8337 14H7.16699ZM7.16699 11.6667H18.8337C20.117 11.6667 21.2156 11.2097 22.1295 10.2958C23.0434 9.38194 23.5003 8.28333 23.5003 7C23.5003 5.71667 23.0434 4.61806 22.1295 3.70417C21.2156 2.79028 20.117 2.33333 18.8337 2.33333H7.16699C5.88366 2.33333 4.78505 2.79028 3.87116 3.70417C2.95727 4.61806 2.50033 5.71667 2.50033 7C2.50033 8.28333 2.95727 9.38194 3.87116 10.2958C4.78505 11.2097 5.88366 11.6667 7.16699 11.6667ZM18.8337 10.5C19.8059 10.5 20.6323 10.1597 21.3128 9.47917C21.9934 8.79861 22.3337 7.97222 22.3337 7C22.3337 6.02778 21.9934 5.20139 21.3128 4.52083C20.6323 3.84028 19.8059 3.5 18.8337 3.5C17.8614 3.5 17.035 3.84028 16.3545 4.52083C15.6739 5.20139 15.3337 6.02778 15.3337 7C15.3337 7.97222 15.6739 8.79861 16.3545 9.47917C17.035 10.1597 17.8614 10.5 18.8337 10.5Z" fill="#343434"/>
</svg>
