<svg width="36" height="37" viewBox="0 0 36 37" fill="none" xmlns="http://www.w3.org/2000/svg">
<path d="M0.404297 0C8.8863 0 17.3683 0 25.8399 0C26.6641 0 27.1857 0.521649 27.1962 1.36672C27.1962 1.72144 27.1962 2.06573 27.1962 2.42045C27.1962 4.14189 27.1962 5.87376 27.1962 7.5952C27.1962 9.31664 27.1857 11.0485 27.1857 12.77C26.7893 12.2796 26.372 11.7997 25.9859 11.2989C25.8086 11.0694 25.6104 10.9337 25.3287 11.0276C25.047 11.1215 24.9426 11.3511 24.9426 11.6328C24.9426 11.9666 24.9322 12.3005 24.9322 12.6448C24.9009 12.6239 24.8592 12.603 24.8383 12.5822C24.6401 12.3318 24.3897 12.1544 24.0663 12.29C23.722 12.4361 23.7637 12.77 23.7637 13.0725C23.7637 14.1262 23.8055 15.18 23.7533 16.2337C23.7116 17.1935 23.8889 18.0908 24.2332 18.9671C24.2958 19.1132 24.348 19.2593 24.4001 19.4053C25.1722 21.6484 25.9442 23.8915 26.7371 26.1242C26.8623 26.458 26.8727 26.8649 27.1857 27.1257C27.1962 27.3552 27.2066 27.5848 27.217 27.8143C27.217 30.4643 27.2066 33.1247 27.2066 35.7746C27.2066 35.879 27.1962 35.9833 27.2066 36.0876C27.217 36.2754 27.1231 36.338 26.9458 36.338C26.4241 36.3172 25.9129 36.4006 25.3913 36.4006C17.5561 36.4111 9.72094 36.4006 1.88578 36.4111C0.988544 36.4111 0.466899 35.7434 0.466899 35.013C0.487764 23.7037 0.477329 12.3944 0.477329 1.08503C0.477329 0.719874 0.498194 0.365154 0.404297 0ZM13.2264 17.663C10.2217 17.663 7.21703 17.663 4.2019 17.663C3.75328 17.663 3.47159 17.8925 3.46116 18.2473C3.45073 18.602 3.75328 18.8732 4.19147 18.8941C4.25407 18.8941 4.31666 18.8941 4.38969 18.8941C10.2739 18.8941 16.1581 18.8941 22.0423 18.8941C22.1883 18.8941 22.3344 18.8941 22.47 18.8628C22.783 18.7793 22.9812 18.5603 22.9499 18.2368C22.9186 17.903 22.71 17.6943 22.3657 17.663C22.2509 17.6526 22.1362 17.663 22.011 17.663C19.0793 17.663 16.1476 17.663 13.2264 17.663ZM13.216 28.5237C10.2113 28.5237 7.2066 28.5237 4.19147 28.5237C3.74285 28.5237 3.47159 28.7533 3.46116 29.108C3.45073 29.4836 3.74285 29.734 4.19147 29.7548C4.25407 29.7548 4.31666 29.7548 4.38969 29.7548C10.2739 29.7548 16.1581 29.7548 22.0423 29.7548C22.1675 29.7548 22.3031 29.7653 22.4283 29.734C22.7413 29.6609 22.9499 29.4627 22.9499 29.1393C22.9499 28.795 22.7309 28.5968 22.397 28.5342C22.2822 28.5133 22.1675 28.5237 22.0423 28.5237C19.1002 28.5237 16.1581 28.5237 13.216 28.5237ZM13.2577 14.0532C10.2635 14.0532 7.26919 14.0532 4.27493 14.0532C3.75328 14.0532 3.47159 14.2619 3.46116 14.6375C3.45073 15.0235 3.74285 15.2426 4.28536 15.2426C4.30623 15.2426 4.33753 15.2426 4.35839 15.2426C10.253 15.2426 16.1476 15.2426 22.0423 15.2426C22.157 15.2426 22.2822 15.253 22.397 15.2321C22.7309 15.1904 22.9082 14.9922 22.9186 14.6583C22.9291 14.2619 22.6891 14.0532 22.1883 14.0532C19.2149 14.0532 16.2415 14.0532 13.2577 14.0532ZM13.2264 24.9139C12.8717 24.9139 12.5274 24.9139 12.1727 24.9139C9.50185 24.9139 6.84144 24.9139 4.1706 24.9139C3.73242 24.9139 3.45073 25.1643 3.46116 25.519C3.47159 25.8633 3.73241 26.0929 4.16017 26.0929C4.22276 26.0929 4.28536 26.0929 4.35839 26.0929C10.253 26.0929 16.1476 26.0929 22.0423 26.0929C22.1466 26.0929 22.2509 26.0929 22.3553 26.0929C22.8039 26.0616 23.0543 25.6651 22.8873 25.2582C22.7517 24.9452 22.4805 24.9035 22.1779 24.9035C19.1941 24.9139 16.2102 24.9139 13.2264 24.9139ZM13.2577 32.1648C12.0892 32.1648 10.9103 32.1648 9.7418 32.1648C7.86387 32.1648 5.99637 32.1648 4.11844 32.1648C3.73242 32.1648 3.47159 32.4048 3.46116 32.7387C3.45073 33.0829 3.73241 33.3438 4.12887 33.3542C4.2019 33.3542 4.28536 33.3542 4.35839 33.3542C10.253 33.3542 16.1476 33.3542 22.0423 33.3542C22.157 33.3542 22.2822 33.3646 22.397 33.3438C22.7413 33.2916 22.9499 33.0308 22.9186 32.6865C22.8873 32.3213 22.6683 32.1648 22.157 32.1648C19.1941 32.1648 16.2207 32.1648 13.2577 32.1648ZM12.3918 22.4935C15.0731 22.4935 17.7543 22.4935 20.4356 22.4935C20.5608 22.4935 20.6964 22.5039 20.8216 22.483C21.1242 22.4204 21.312 22.2327 21.3328 21.9197C21.3537 21.6275 21.2076 21.4189 20.9259 21.325C20.7903 21.2833 20.6443 21.2624 20.5086 21.2624C15.1148 21.2624 9.7105 21.2624 4.31666 21.2624C4.1706 21.2624 4.02454 21.2728 3.89934 21.3146C3.60722 21.4189 3.45072 21.638 3.48202 21.9405C3.51332 22.2431 3.71155 22.4309 4.01411 22.483C4.12887 22.5039 4.24363 22.4935 4.36882 22.4935C7.03966 22.4935 9.71051 22.4935 12.3918 22.4935ZM10.0965 10.3912V10.4017C9.56445 10.4017 9.03237 10.4017 8.50028 10.4017C7.07097 10.4017 5.63122 10.4017 4.2019 10.4121C3.75328 10.4121 3.45073 10.6834 3.46116 11.0485C3.47159 11.4032 3.74285 11.6328 4.19147 11.6432C4.24363 11.6432 4.2958 11.6432 4.34796 11.6432C8.04123 11.6328 11.7449 11.6223 15.4382 11.6119C15.6886 11.6119 15.939 11.6119 16.1789 11.5702C16.5024 11.518 16.6693 11.2885 16.6589 10.9546C16.6484 10.5999 16.398 10.3912 15.9599 10.3912C14.0089 10.3912 12.0579 10.3912 10.0965 10.3912ZM13.2264 4.38185C12.3709 4.38185 11.505 4.38185 10.6495 4.38185C9.54358 4.38185 8.43769 4.38185 7.33179 4.38185C6.9249 4.38185 6.66408 4.63224 6.66408 4.98696C6.66408 5.32081 6.90404 5.56077 7.29006 5.6025C7.38395 5.61294 7.46742 5.6025 7.56132 5.6025C11.3381 5.6025 15.1148 5.6025 18.8915 5.6025C19.048 5.6025 19.2045 5.61294 19.3506 5.56077C19.6323 5.44601 19.7992 5.24778 19.7679 4.93479C19.7366 4.6218 19.5488 4.44445 19.2462 4.39228C19.1315 4.37141 19.0167 4.38185 18.8915 4.38185C16.9927 4.38185 15.1044 4.38185 13.2264 4.38185Z" fill="#1DA1F2"/>
<path d="M29.6057 16.9642C30.0022 18.1327 30.3882 19.3012 30.7951 20.4697C32.0053 23.9647 33.2364 27.4598 34.4466 30.9548C34.7909 31.9459 35.1039 32.9579 35.4899 33.9282C35.7299 34.5333 35.5421 34.9819 35.1143 35.3575C34.3945 35.9939 33.5285 36.2861 32.5583 36.1713C32.0679 36.1087 31.7236 35.8792 31.5567 35.3784C30.9516 33.5943 30.3152 31.8207 29.6996 30.0471C29.6788 29.9845 29.6475 29.9324 29.6162 29.8698L29.6057 29.8489C29.5953 29.7967 29.5849 29.7341 29.5744 29.682C29.1884 28.5657 28.8128 27.4493 28.4268 26.333C28.0199 25.1749 27.6026 24.0169 27.1853 22.8588C26.9557 22.1702 26.7262 21.4817 26.4863 20.7931C26.0168 19.4055 25.5369 18.0179 25.0674 16.6303C25.3908 16.4634 25.7768 16.4321 26.0898 16.2339C26.1524 16.213 26.215 16.2026 26.2776 16.1817C27.1853 15.9209 28.0512 15.514 28.9693 15.2949C29.1988 15.8583 29.3971 16.4112 29.6057 16.9642Z" fill="#636C77"/>
<path d="M13.2255 17.6628C16.1571 17.6628 19.0784 17.6628 22.01 17.6628C22.1248 17.6628 22.25 17.6524 22.3648 17.6628C22.709 17.6941 22.9281 17.9028 22.949 18.2367C22.9803 18.5601 22.7821 18.7792 22.4691 18.8626C22.3335 18.8939 22.1874 18.8939 22.0413 18.8939C16.1571 18.8939 10.2729 18.8939 4.38875 18.8939C4.32616 18.8939 4.26356 18.8939 4.19053 18.8939C3.75235 18.8731 3.44979 18.6018 3.46022 18.2471C3.47066 17.8924 3.75234 17.6628 4.20096 17.6628C7.20566 17.6628 10.2104 17.6628 13.2255 17.6628Z" fill="#F5F5F5"/>
<path d="M13.2151 28.5242C16.1572 28.5242 19.0992 28.5242 22.0413 28.5242C22.1561 28.5242 22.2813 28.5137 22.3961 28.5346C22.7299 28.5972 22.949 28.7954 22.949 29.1397C22.949 29.4631 22.7404 29.6614 22.4274 29.7344C22.3022 29.7657 22.1665 29.7553 22.0413 29.7553C16.1572 29.7553 10.273 29.7553 4.38876 29.7553C4.32616 29.7553 4.26357 29.7553 4.19054 29.7553C3.74192 29.7344 3.4498 29.484 3.46023 29.1084C3.47066 28.7537 3.75235 28.5242 4.19054 28.5242C7.20567 28.5137 10.2104 28.5242 13.2151 28.5242Z" fill="#F5F5F5"/>
<path d="M13.2571 14.0537C16.2409 14.0537 19.2143 14.0537 22.1982 14.0537C22.6885 14.0537 22.9389 14.2624 22.9285 14.6588C22.918 14.9927 22.7511 15.1909 22.4068 15.2326C22.292 15.2431 22.1773 15.2431 22.0521 15.2431C16.1575 15.2431 10.2628 15.2431 4.36821 15.2431C4.34734 15.2431 4.31605 15.2431 4.29518 15.2431C3.75267 15.2431 3.46054 15.024 3.47097 14.638C3.48141 14.2624 3.7631 14.0537 4.28474 14.0537C7.26857 14.0537 10.2628 14.0537 13.2571 14.0537Z" fill="#F5F5F5"/>
<path d="M13.2262 24.9141C16.21 24.9141 19.1834 24.9141 22.1672 24.9141C22.4698 24.9141 22.7515 24.9454 22.8767 25.2688C23.0436 25.6757 22.7932 26.0721 22.3446 26.1034C22.2403 26.1138 22.1359 26.1034 22.0316 26.1034C16.137 26.1034 10.2423 26.1034 4.34771 26.1034C4.28512 26.1034 4.22252 26.1034 4.14949 26.1034C3.73217 26.093 3.46091 25.8739 3.45048 25.5296C3.44004 25.1749 3.72173 24.9245 4.15992 24.9245C6.83076 24.9245 9.49116 24.9245 12.162 24.9245C12.5272 24.9141 12.8819 24.9141 13.2262 24.9141Z" fill="#F5F5F5"/>
<path d="M13.2568 32.1648C16.2198 32.1648 19.1932 32.1648 22.1561 32.1648C22.6673 32.1648 22.8969 32.3213 22.9177 32.6864C22.949 33.0307 22.7404 33.302 22.3961 33.3437C22.2813 33.3646 22.1666 33.3541 22.0414 33.3541C16.1467 33.3541 10.2521 33.3541 4.35747 33.3541C4.28444 33.3541 4.20098 33.3541 4.12795 33.3541C3.73149 33.3437 3.44981 33.0829 3.46024 32.7386C3.47067 32.4048 3.72106 32.1648 4.11752 32.1648C5.99545 32.1544 7.86295 32.1648 9.74088 32.1648C10.9094 32.1648 12.0883 32.1648 13.2568 32.1648Z" fill="#F5F5F5"/>
<path d="M12.3916 22.4938C9.71032 22.4938 7.02905 22.4938 4.34778 22.4938C4.23301 22.4938 4.10782 22.5042 3.99305 22.4833C3.6905 22.4312 3.49227 22.2538 3.46097 21.9408C3.42968 21.6383 3.58617 21.4088 3.87829 21.3149C4.01392 21.2731 4.15998 21.2627 4.29561 21.2627C9.68946 21.2627 15.0937 21.2627 20.4876 21.2627C20.6232 21.2627 20.7797 21.2731 20.9049 21.3253C21.1866 21.4192 21.3326 21.6278 21.3118 21.92C21.2909 22.233 21.1031 22.4207 20.8006 22.4833C20.6754 22.5042 20.5397 22.4938 20.4145 22.4938C17.7541 22.4938 15.0729 22.4938 12.3916 22.4938Z" fill="#F5F5F5"/>
<path d="M27.1957 22.8691C27.1853 24.2775 27.1853 25.6964 27.1748 27.1049C26.8618 26.8441 26.8514 26.4476 26.7262 26.1033C25.9333 23.8707 25.1613 21.6276 24.3892 19.3845C24.337 19.2384 24.2849 19.0924 24.2223 18.9463C23.8676 18.0699 23.6902 17.1727 23.7424 16.2129C23.7945 15.1591 23.7528 14.1054 23.7528 13.0517C23.7528 12.7491 23.7111 12.4153 24.0554 12.2692C24.3788 12.1336 24.6292 12.3214 24.8274 12.5613C24.8483 12.5926 24.89 12.603 24.9213 12.6239C24.9317 13.1456 24.9422 13.6672 24.9526 14.1889C24.9526 14.5644 24.9317 14.94 24.9422 15.3156C24.9526 15.7538 24.8691 16.2024 25.0778 16.6093C25.5473 17.9969 26.0272 19.3845 26.4967 20.7721C26.7366 21.4919 26.9662 22.1805 27.1957 22.8691Z" fill="#0E8AD7"/>
<path d="M10.0956 10.3916C12.0466 10.3916 13.9975 10.3916 15.9589 10.3916C16.3867 10.3916 16.6475 10.6003 16.6579 10.955C16.6684 11.2888 16.5119 11.5079 16.178 11.5705C15.938 11.6123 15.6877 11.6123 15.4373 11.6123C11.744 11.6227 8.0403 11.6331 4.34702 11.6436C4.29486 11.6436 4.2427 11.6436 4.19053 11.6436C3.75235 11.6331 3.47066 11.4036 3.46022 11.0489C3.44979 10.6837 3.75234 10.4125 4.20096 10.4125C5.63028 10.402 7.07003 10.402 8.49934 10.402C9.03143 10.402 9.56351 10.402 10.0956 10.402C10.0956 10.3916 10.0956 10.3916 10.0956 10.3916Z" fill="#F5F5F5"/>
<path d="M24.9522 14.22C24.9418 13.6983 24.9313 13.1767 24.9209 12.655C24.9209 12.3212 24.9313 11.9873 24.9313 11.643C24.9313 11.3613 25.0357 11.1318 25.3174 11.0379C25.599 10.944 25.7973 11.0796 25.9746 11.3092C26.3607 11.8099 26.7675 12.2899 27.1744 12.7802C27.2579 12.9889 27.4874 13.1141 27.5187 13.3436C26.9866 13.5105 26.4545 13.6774 25.9329 13.907C25.6199 14.0113 25.2861 14.1156 24.9522 14.22Z" fill="#F5F5F5"/>
<path d="M25.9433 13.9071C26.4545 13.6776 26.9866 13.5107 27.5291 13.3438C28.0716 13.9593 28.6767 14.5227 28.9897 15.3051C28.0612 15.5242 27.2057 15.9311 26.298 16.1919C26.2354 16.2128 26.1728 16.2232 26.1102 16.2441C26.0163 15.9311 25.9328 15.6286 25.9433 15.2947C25.9641 14.8357 25.9433 14.3766 25.9433 13.9071Z" fill="#DFBAA3"/>
<path d="M25.9441 13.9072C25.9441 14.3767 25.9545 14.8358 25.9336 15.3052C25.9232 15.6391 26.0067 15.9417 26.1006 16.2546C25.7876 16.4529 25.4016 16.4842 25.0781 16.6511C24.8695 16.2338 24.953 15.7852 24.9425 15.3574C24.9321 14.9818 24.953 14.6062 24.953 14.2306C25.2868 14.1159 25.6207 14.0116 25.9441 13.9072Z" fill="#D7AC8F"/>
</svg>
