<svg width="24" height="24" viewBox="0 0 24 24" fill="none" xmlns="http://www.w3.org/2000/svg">
<path d="M11.9997 23.6673C10.4052 23.6673 8.89829 23.3609 7.47884 22.748C6.0594 22.1359 4.82001 21.2998 3.76067 20.2397C2.70056 19.1803 1.86445 17.9409 1.25234 16.5215C0.639452 15.102 0.333008 13.5951 0.333008 12.0007C0.333008 10.3868 0.648786 8.8701 1.28034 7.45065C1.91267 6.03121 2.76862 4.79648 3.84817 3.74648C4.92695 2.69648 6.18579 1.86504 7.62467 1.25215C9.06356 0.64004 10.5997 0.333984 12.233 0.333984C13.7886 0.333984 15.2566 0.60154 16.6372 1.13665C18.0177 1.67098 19.228 2.40987 20.2678 3.35332C21.3085 4.29598 22.1349 5.41404 22.747 6.70748C23.3599 8.00015 23.6663 9.3951 23.6663 10.8923C23.6663 13.1284 22.9858 14.8442 21.6247 16.0397C20.2636 17.2359 18.6108 17.834 16.6663 17.834H14.508C14.333 17.834 14.2117 17.8826 14.144 17.9798C14.0756 18.077 14.0413 18.184 14.0413 18.3007C14.0413 18.534 14.1872 18.8692 14.4788 19.3063C14.7705 19.7442 14.9163 20.2451 14.9163 20.809C14.9163 21.7812 14.6488 22.5007 14.1137 22.9673C13.5793 23.434 12.8747 23.6673 11.9997 23.6673ZM5.58301 13.1673C6.08856 13.1673 6.50662 13.002 6.83717 12.6715C7.16773 12.3409 7.33301 11.9229 7.33301 11.4173C7.33301 10.9118 7.16773 10.4937 6.83717 10.1632C6.50662 9.8326 6.08856 9.66732 5.58301 9.66732C5.07745 9.66732 4.6594 9.8326 4.32884 10.1632C3.99829 10.4937 3.83301 10.9118 3.83301 11.4173C3.83301 11.9229 3.99829 12.3409 4.32884 12.6715C4.6594 13.002 5.07745 13.1673 5.58301 13.1673ZM9.08301 8.50065C9.58856 8.50065 10.0066 8.33537 10.3372 8.00482C10.6677 7.67426 10.833 7.25621 10.833 6.75065C10.833 6.2451 10.6677 5.82704 10.3372 5.49648C10.0066 5.16593 9.58856 5.00065 9.08301 5.00065C8.57745 5.00065 8.1594 5.16593 7.82884 5.49648C7.49829 5.82704 7.33301 6.2451 7.33301 6.75065C7.33301 7.25621 7.49829 7.67426 7.82884 8.00482C8.1594 8.33537 8.57745 8.50065 9.08301 8.50065ZM14.9163 8.50065C15.4219 8.50065 15.84 8.33537 16.1705 8.00482C16.5011 7.67426 16.6663 7.25621 16.6663 6.75065C16.6663 6.2451 16.5011 5.82704 16.1705 5.49648C15.84 5.16593 15.4219 5.00065 14.9163 5.00065C14.4108 5.00065 13.9927 5.16593 13.6622 5.49648C13.3316 5.82704 13.1663 6.2451 13.1663 6.75065C13.1663 7.25621 13.3316 7.67426 13.6622 8.00482C13.9927 8.33537 14.4108 8.50065 14.9163 8.50065ZM18.4163 13.1673C18.9219 13.1673 19.34 13.002 19.6705 12.6715C20.0011 12.3409 20.1663 11.9229 20.1663 11.4173C20.1663 10.9118 20.0011 10.4937 19.6705 10.1632C19.34 9.8326 18.9219 9.66732 18.4163 9.66732C17.9108 9.66732 17.4927 9.8326 17.1622 10.1632C16.8316 10.4937 16.6663 10.9118 16.6663 11.4173C16.6663 11.9229 16.8316 12.3409 17.1622 12.6715C17.4927 13.002 17.9108 13.1673 18.4163 13.1673ZM11.9997 21.334C12.1747 21.334 12.3158 21.2854 12.4232 21.1882C12.5297 21.0909 12.583 20.9645 12.583 20.809C12.583 20.5368 12.4372 20.2159 12.1455 19.8465C11.8538 19.477 11.708 18.9229 11.708 18.184C11.708 17.3673 11.99 16.7159 12.5538 16.2298C13.1177 15.7437 13.808 15.5007 14.6247 15.5007H16.6663C17.9497 15.5007 19.0483 15.1262 19.9622 14.3772C20.8761 13.6289 21.333 12.4673 21.333 10.8923C21.333 8.53954 20.4339 6.58032 18.6357 5.01465C16.8367 3.44976 14.7025 2.66732 12.233 2.66732C9.58856 2.66732 7.33301 3.57148 5.46634 5.37982C3.59967 7.18815 2.66634 9.3951 2.66634 12.0007C2.66634 14.5868 3.57556 16.789 5.39401 18.6075C7.21167 20.4252 9.41356 21.334 11.9997 21.334Z" fill="black"/>
</svg>
